<svg width="13" height="12" viewBox="0 0 13 12" fill="none" xmlns="http://www.w3.org/2000/svg">
<g clip-path="url(#clip0_1163_715)">
<path d="M5.33375 8.766V4.7655H4.859C4.51898 4.94675 4.19037 5.14863 3.875 5.37V5.89125C4.15625 5.6985 4.60175 5.42625 4.8185 5.3085H4.8275V8.766H5.33375ZM6.22475 7.78725C6.26 8.26725 6.67025 8.84175 7.502 8.84175C8.4455 8.84175 9.002 8.04225 9.002 6.6885C9.002 5.238 8.41625 4.6875 7.53725 4.6875C6.84275 4.6875 6.1895 5.1915 6.1895 6.04425C6.1895 6.91425 6.8075 7.37175 7.4465 7.37175C8.006 7.37175 8.369 7.08975 8.48375 6.77925H8.504C8.501 7.76625 8.15825 8.40225 7.52525 8.40225C7.02725 8.40225 6.76925 8.06475 6.73775 7.78725H6.22475ZM8.4395 6.0495C8.4395 6.5715 8.02025 6.9345 7.5515 6.9345C7.10075 6.9345 6.6935 6.64725 6.6935 6.0345C6.6935 5.41725 7.13 5.127 7.5695 5.127C8.04425 5.127 8.4395 5.4255 8.4395 6.0495Z" fill="black"/>
<path d="M3.125 0C3.22446 0 3.31984 0.0395088 3.39016 0.109835C3.46049 0.180161 3.5 0.275544 3.5 0.375V0.75H9.5V0.375C9.5 0.275544 9.53951 0.180161 9.60983 0.109835C9.68016 0.0395088 9.77554 0 9.875 0C9.97446 0 10.0698 0.0395088 10.1402 0.109835C10.2105 0.180161 10.25 0.275544 10.25 0.375V0.75H11C11.3978 0.75 11.7794 0.908035 12.0607 1.18934C12.342 1.47064 12.5 1.85218 12.5 2.25V10.5C12.5 10.8978 12.342 11.2794 12.0607 11.5607C11.7794 11.842 11.3978 12 11 12H2C1.60218 12 1.22064 11.842 0.93934 11.5607C0.658035 11.2794 0.5 10.8978 0.5 10.5V2.25C0.5 1.85218 0.658035 1.47064 0.93934 1.18934C1.22064 0.908035 1.60218 0.75 2 0.75H2.75V0.375C2.75 0.275544 2.78951 0.180161 2.85984 0.109835C2.93016 0.0395088 3.02554 0 3.125 0V0ZM1.25 3V10.5C1.25 10.6989 1.32902 10.8897 1.46967 11.0303C1.61032 11.171 1.80109 11.25 2 11.25H11C11.1989 11.25 11.3897 11.171 11.5303 11.0303C11.671 10.8897 11.75 10.6989 11.75 10.5V3H1.25Z" fill="black"/>
</g>
<defs>
<clipPath id="clip0_1163_715">
<rect width="12" height="12" fill="white" transform="translate(0.5)"/>
</clipPath>
</defs>
</svg>
