<svg width="17" height="16" viewBox="0 0 17 16" fill="none" xmlns="http://www.w3.org/2000/svg">
<path d="M8.625 9C8.13055 9 7.6472 8.85338 7.23608 8.57868C6.82495 8.30397 6.50452 7.91353 6.3153 7.45671C6.12608 6.99989 6.07657 6.49723 6.17304 6.01228C6.2695 5.52732 6.5076 5.08187 6.85723 4.73223C7.20687 4.3826 7.65232 4.1445 8.13728 4.04804C8.62223 3.95157 9.1249 4.00108 9.58171 4.1903C10.0385 4.37952 10.429 4.69995 10.7037 5.11108C10.9784 5.5222 11.125 6.00555 11.125 6.5C11.1242 7.1628 10.8606 7.79822 10.3919 8.26689C9.92322 8.73556 9.2878 8.99921 8.625 9ZM8.625 5C8.32833 5 8.03832 5.08797 7.79165 5.2528C7.54497 5.41762 7.35271 5.65189 7.23918 5.92598C7.12565 6.20007 7.09595 6.50167 7.15382 6.79264C7.2117 7.08361 7.35456 7.35088 7.56434 7.56066C7.77412 7.77044 8.04139 7.9133 8.33237 7.97118C8.62334 8.02906 8.92494 7.99935 9.19903 7.88582C9.47312 7.77229 9.70738 7.58003 9.87221 7.33336C10.037 7.08668 10.125 6.79667 10.125 6.5C10.1246 6.1023 9.96644 5.721 9.68522 5.43978C9.404 5.15856 9.0227 5.0004 8.625 5Z" fill="white"/>
<path d="M8.62501 15L4.40701 10.0255C4.3484 9.95081 4.29039 9.87564 4.23301 9.8C3.5125 8.85089 3.12326 7.69161 3.12501 6.5C3.12501 5.04131 3.70447 3.64236 4.73592 2.61091C5.76737 1.57946 7.16632 1 8.62501 1C10.0837 1 11.4826 1.57946 12.5141 2.61091C13.5455 3.64236 14.125 5.04131 14.125 6.5C14.1268 7.69107 13.7377 8.84982 13.0175 9.7985L13.017 9.8C13.017 9.8 12.867 9.997 12.8445 10.0235L8.62501 15ZM5.03101 9.1975C5.03201 9.1975 5.14801 9.3515 5.17451 9.3845L8.62501 13.454L12.08 9.379C12.102 9.3515 12.219 9.1965 12.2195 9.196C12.8081 8.42056 13.1262 7.47352 13.125 6.5C13.125 5.30653 12.6509 4.16193 11.807 3.31802C10.9631 2.47411 9.81848 2 8.62501 2C7.43153 2 6.28694 2.47411 5.44303 3.31802C4.59911 4.16193 4.12501 5.30653 4.12501 6.5C4.12396 7.47412 4.44239 8.42171 5.03151 9.1975H5.03101Z" fill="white"/>
</svg>
