<svg width="32" height="32" viewBox="0 0 32 32" fill="none" xmlns="http://www.w3.org/2000/svg">
<path d="M12.1 2.00006C10.1822 1.99353 8.30466 2.54984 6.69999 3.60006L13.1 10.0001C13.3131 10.1819 13.4877 10.4046 13.6135 10.655C13.7393 10.9053 13.8137 11.1783 13.8323 11.4579C13.8509 11.7375 13.8134 12.0179 13.722 12.2828C13.6306 12.5476 13.4871 12.7915 13.3 13.0001C13.0914 13.1872 12.8476 13.3307 12.5827 13.4221C12.3179 13.5135 12.0374 13.551 11.7578 13.5324C11.4783 13.5137 11.2053 13.4393 10.9549 13.3136C10.7045 13.1878 10.4818 13.0132 10.3 12.8001L3.69999 6.40006C2.55888 8.07919 1.96508 10.0702 1.99999 12.1001C2.01052 14.7755 3.07801 17.3384 4.96985 19.2302C6.86169 21.122 9.42455 22.1895 12.1 22.2001C12.9755 22.2039 13.8484 22.1032 14.7 21.9001L21.4 28.6001C22.3415 29.5416 23.6185 30.0705 24.95 30.0705C26.2815 30.0705 27.5585 29.5416 28.5 28.6001C29.4415 27.6585 29.9704 26.3816 29.9704 25.0501C29.9704 23.7185 29.4415 22.4416 28.5 21.5001L21.8 14.8001C22.0031 13.9484 22.1038 13.0756 22.1 12.2001C22.1266 10.8701 21.8876 9.54821 21.397 8.31177C20.9063 7.07534 20.174 5.94922 19.2427 4.99934C18.3115 4.04947 17.2001 3.29494 15.9736 2.77993C14.7471 2.26492 13.4302 1.99979 12.1 2.00006ZM20.1 12.1001C20.0987 12.8106 19.9977 13.5175 19.8 14.2001L19.5 15.3001L20.3 16.1001L27 22.8001C27.2853 23.0702 27.5124 23.3958 27.6671 23.757C27.8219 24.1181 27.9012 24.5071 27.9 24.9001C27.9112 25.2944 27.8366 25.6865 27.6812 26.0491C27.5258 26.4118 27.2933 26.7362 27 27.0001C26.7291 27.2845 26.4033 27.5109 26.0424 27.6656C25.6814 27.8203 25.2927 27.9001 24.9 27.9001C24.5073 27.9001 24.1186 27.8203 23.7576 27.6656C23.3966 27.5109 23.0708 27.2845 22.8 27.0001L16.1 20.3001L15.3 19.5001L14.2 19.8001C13.5175 19.9977 12.8106 20.0987 12.1 20.1001C9.97506 20.0942 7.93394 19.2705 6.39999 17.8001C5.62424 17.0701 5.00992 16.1858 4.59657 15.2041C4.18322 14.2224 3.98 13.165 3.99999 12.1001C4.00101 11.3566 4.10191 10.6166 4.29999 9.90006L8.69999 14.3001C9.07179 14.7046 9.5204 15.0312 10.0197 15.2606C10.519 15.49 11.0589 15.6178 11.6081 15.6364C12.1572 15.655 12.7046 15.5641 13.2183 15.369C13.732 15.1739 14.2017 14.8785 14.6 14.5001C14.9785 14.1017 15.2739 13.632 15.469 13.1183C15.6641 12.6047 15.7549 12.0573 15.7363 11.5081C15.7177 10.959 15.59 10.419 15.3605 9.91975C15.1311 9.42047 14.8046 8.97185 14.4 8.60006L9.99999 4.20006C10.6469 3.99632 11.3218 3.8951 12 3.90006C14.1249 3.90596 16.166 4.72957 17.7 6.20006C19.2345 7.78132 20.0949 9.89666 20.1 12.1001Z" fill="black"/>
</svg>
