<svg width="17" height="16" viewBox="0 0 17 16" fill="none" xmlns="http://www.w3.org/2000/svg">
<path d="M8.25 11C7.65666 11 7.07664 10.8241 6.58329 10.4944C6.08994 10.1648 5.70543 9.69623 5.47836 9.14805C5.2513 8.59987 5.19189 7.99667 5.30765 7.41473C5.4234 6.83279 5.70912 6.29824 6.12868 5.87868C6.54824 5.45912 7.08279 5.1734 7.66473 5.05765C8.24667 4.94189 8.84987 5.0013 9.39805 5.22836C9.94623 5.45543 10.4148 5.83994 10.7444 6.33329C11.0741 6.82664 11.25 7.40666 11.25 8C11.2491 8.79537 10.9327 9.55789 10.3703 10.1203C9.80789 10.6827 9.04537 10.9991 8.25 11ZM8.25 6C7.85444 6 7.46776 6.1173 7.13886 6.33706C6.80996 6.55683 6.55362 6.86918 6.40224 7.23463C6.25087 7.60009 6.21126 8.00222 6.28843 8.39018C6.3656 8.77814 6.55608 9.13451 6.83579 9.41421C7.11549 9.69392 7.47186 9.8844 7.85982 9.96157C8.24778 10.0387 8.64992 9.99914 9.01537 9.84776C9.38082 9.69639 9.69318 9.44004 9.91294 9.11114C10.1327 8.78224 10.25 8.39556 10.25 8C10.2493 7.46977 10.0384 6.96145 9.66348 6.58652C9.28855 6.21159 8.78023 6.00066 8.25 6Z" fill="white"/>
<path d="M8.24994 13C7.54665 12.9994 6.85137 12.8508 6.20932 12.5637C5.56728 12.2767 4.99286 11.8577 4.52344 11.334L5.26844 10.667C5.71329 11.1642 6.27545 11.5423 6.90374 11.7668C7.53204 11.9913 8.2065 12.055 8.86573 11.9523C9.52496 11.8495 10.148 11.5834 10.6781 11.1784C11.2083 10.7733 11.6287 10.242 11.9011 9.63296C12.1734 9.0239 12.2891 8.35638 12.2376 7.69118C12.1861 7.02598 11.969 6.38423 11.6061 5.82436C11.2432 5.26449 10.7461 4.80429 10.1599 4.48565C9.57371 4.16701 8.91713 4.00006 8.24994 4V3C9.57602 3 10.8478 3.52678 11.7855 4.46447C12.7232 5.40215 13.2499 6.67392 13.2499 8C13.2499 9.32608 12.7232 10.5979 11.7855 11.5355C10.8478 12.4732 9.57602 13 8.24994 13Z" fill="white"/>
<path d="M8.25 15C6.86553 15 5.51216 14.5895 4.36101 13.8203C3.20987 13.0511 2.31266 11.9579 1.78285 10.6788C1.25303 9.3997 1.11441 7.99224 1.38451 6.63437C1.6546 5.2765 2.32129 4.02922 3.30026 3.05026C4.27922 2.07129 5.5265 1.4046 6.88437 1.13451C8.24224 0.86441 9.6497 1.00303 10.9288 1.53285C12.2079 2.06266 13.3011 2.95987 14.0703 4.11101C14.8395 5.26216 15.25 6.61553 15.25 8C15.2479 9.85587 14.5097 11.6351 13.1974 12.9474C11.8851 14.2597 10.1059 14.9979 8.25 15ZM8.25 2C7.06332 2 5.90328 2.3519 4.91658 3.01119C3.92989 3.67047 3.16085 4.60755 2.70673 5.7039C2.2526 6.80026 2.13378 8.00666 2.36529 9.17054C2.5968 10.3344 3.16825 11.4035 4.00736 12.2426C4.84648 13.0818 5.91558 13.6532 7.07946 13.8847C8.24335 14.1162 9.44975 13.9974 10.5461 13.5433C11.6425 13.0892 12.5795 12.3201 13.2388 11.3334C13.8981 10.3467 14.25 9.18669 14.25 8C14.2482 6.40927 13.6154 4.88423 12.4906 3.75941C11.3658 2.63459 9.84073 2.00186 8.25 2Z" fill="white"/>
</svg>
