<svg width="16" height="16" viewBox="0 0 16 16" fill="none" xmlns="http://www.w3.org/2000/svg">
<path d="M8 13.5C8.55228 13.5 9 13.0523 9 12.5C9 11.9477 8.55228 11.5 8 11.5C7.44772 11.5 7 11.9477 7 12.5C7 13.0523 7.44772 13.5 8 13.5Z" fill="white"/>
<path d="M5.23486 9.61653L5.94186 10.323C6.49603 9.7955 7.23161 9.5009 7.99672 9.50006C8.76182 9.49922 9.49804 9.79221 10.0534 10.3185L10.7599 9.61203C10.0172 8.89783 9.02668 8.49931 7.99635 8.50025C6.96603 8.50118 5.97619 8.90098 5.23486 9.61653Z" fill="white"/>
<path d="M3.11426 7.4966L3.82126 8.2031C4.93723 7.11214 6.43561 6.50089 7.99624 6.49996C9.55687 6.49903 11.056 7.10848 12.1733 8.1981L12.8798 7.4916C11.5753 6.21411 9.82183 5.49907 7.99599 5.5C6.17014 5.50094 4.41745 6.21777 3.11426 7.4966Z" fill="white"/>
<path d="M15 5.3704C13.1345 3.53097 10.6199 2.49976 8 2.49976C5.38013 2.49976 2.86554 3.53097 1 5.3704V5.3819L1.702 6.0839C3.37916 4.42918 5.64018 3.50101 7.99622 3.50008C10.3523 3.49914 12.614 4.42551 14.2925 6.0789L15 5.3714V5.3704Z" fill="white"/>
</svg>
